HIERARCHY
ROOT Hips
{
	OFFSET 0.00000 0.00000 0.00000
	CHANNELS 6 Xposition Yposition Zposition Zrotation Yrotation Xrotation 
	JOINT LHipJoint
	{
		OFFSET 0 0 0
		CHANNELS 3 Zrotation Yrotation Xrotation
		JOINT LeftHip
		{
			OFFSET 1.41496 -1.84582 0.78394
			CHANNELS 3 Zrotation Yrotation Xrotation
			JOINT LeftKnee
			{
				OFFSET 2.58040 -7.08960 0.00000
				CHANNELS 3 Zrotation Yrotation Xrotation
				JOINT LeftAnkle
				{
					OFFSET 2.64719 -7.27309 0.00000
					CHANNELS 3 Zrotation Yrotation Xrotation
					JOINT LeftToe
					{
						OFFSET 0.20718 -0.56921 2.20259
						CHANNELS 3 Zrotation Yrotation Xrotation
						End Site
						{
							OFFSET 0.00000 -0.00000 1.14243
						}
					}
				}
			}
		}
	}
	JOINT RHipJoint
	{
		OFFSET 0 0 0
		CHANNELS 3 Zrotation Yrotation Xrotation
		JOINT RightHip
		{
			OFFSET -1.40551 -1.84582 0.78394
			CHANNELS 3 Zrotation Yrotation Xrotation
			JOINT RightKnee
			{
				OFFSET -2.56572 -7.04926 0.00000
				CHANNELS 3 Zrotation Yrotation Xrotation
				JOINT RightAnkle
				{
					OFFSET -2.57974 -7.08778 0.00000
					CHANNELS 3 Zrotation Yrotation Xrotation
					JOINT RightToe
					{
						OFFSET -0.26704 -0.73369 2.20815
						CHANNELS 3 Zrotation Yrotation Xrotation
						End Site
						{
							OFFSET -0.00000 -0.00000 1.16246
						}
					}
				}
			}
		}
	}
	JOINT lowerback
	{
		OFFSET 0 0 0
		CHANNELS 3 Zrotation Yrotation Xrotation
		JOINT Chest
		{
			OFFSET -0.04690 2.05196 -0.07017
			CHANNELS 3 Zrotation Yrotation Xrotation
			JOINT Chest2
			{
				OFFSET 0.04085 2.05260 0.00800
				CHANNELS 3 Zrotation Yrotation Xrotation
				JOINT lowerneck
				{
					OFFSET 0 0 0
					CHANNELS 3 Zrotation Yrotation Xrotation
					JOINT Neck
					{
						OFFSET -0.03582 1.80995 0.19301
						CHANNELS 3 Zrotation Yrotation Xrotation
						JOINT Head
						{
							OFFSET 0.00952 1.80195 -0.36389
							CHANNELS 3 Zrotation Yrotation Xrotation
							End Site
							{
								OFFSET 0.00392 1.85062 -0.14494
							}
						}
					}
				}
				JOINT LeftCollar
				{
					OFFSET 0 0 0
					CHANNELS 3 Zrotation Yrotation Xrotation
					JOINT LeftShoulder
					{
						OFFSET 3.55224 1.39726 -0.13667
CHANNELS 3 Zrotation Xrotation Yrotation
						JOINT LeftElbow
						{
OFFSET 0 -5.145070 -0.000000
CHANNELS 3 Zrotation Xrotation Yrotation
							JOINT LeftWrist
							{
OFFSET 0 -3.506460 0.000000
CHANNELS 3 Zrotation Xrotation Yrotation
								JOINT lhand
								{
									OFFSET 0 0 0
CHANNELS 3 Zrotation Xrotation Yrotation
									JOINT LFingers
									{
OFFSET 0 -0.629970 0.000000
CHANNELS 3 Zrotation Xrotation Yrotation
										End Site
										{
OFFSET 0 -0.507900 0.000000
										}
									}
								}
								JOINT LThumb
								{
OFFSET 0 0.000000 0.000000
CHANNELS 3 Zrotation Xrotation Yrotation
									End Site
									{
OFFSET 0 -0.515650 0.515650
									}
								}
							}
						}
					}
				}
				JOINT RightCollar
				{
					OFFSET 0 0 0
					CHANNELS 3 Zrotation Yrotation Xrotation
					JOINT RightShoulder
					{
						OFFSET -3.06467 1.61290 -0.28813
CHANNELS 3 Zrotation Xrotation Yrotation
						JOINT RightElbow
						{
OFFSET 0 -5.232000 -0.000000
CHANNELS 3 Zrotation Xrotation Yrotation
							JOINT RightWrist
							{
OFFSET 0 -3.656410 0.000000
CHANNELS 3 Zrotation Xrotation Yrotation
								JOINT rhand
								{
									OFFSET 0 0 0
CHANNELS 3 Zrotation Xrotation Yrotation
									JOINT RFingers
									{
OFFSET 0 -0.656810 0.000000
CHANNELS 3 Zrotation Xrotation Yrotation
										End Site
										{
OFFSET 0 -0.529530 0.000000
										}
									}
								}
								JOINT RThumb
								{
OFFSET 0 0.000000 0.000000
CHANNELS 3 Zrotation Xrotation Yrotation
									End Site
									{
OFFSET 0 -0.537620 0.537620
									}
								}
							}
						}
					}
				}
			}
		}
	}
}
MOTION
Frames: 8
Frame Time: 0.008333333333333333
6.664125 15.318941 -0.460537 9.976497 16.854860 8.034241 0.000000 0.000000 0.000000 -4.795338 -15.154818 -29.361150 8.619393 16.556328 54.764190 1.993735 -19.229988 -26.907668 2.432885 -9.714847 -28.058173 0.000000 0.000000 0.000000 15.006485 -9.081322 -27.719957 -24.209021 -19.568800 102.392426 -0.357750 -1.493592 -11.930854 -4.191927 12.411493 -37.203762 -12.014171 -0.071036 18.215935 -4.896292 -2.705589 3.091869 2.109067 -1.066014 -6.537869 -7.573585 -5.584017 -16.779992 9.072061 -7.000798 8.763923 3.401071 -2.989106 5.982426 0.000000 0.000000 0.000000 16.987505 -3.532618 -29.924600 128.843866 -53.451195 92.899798 19.884931 -12.201475 9.771802 0.000000 0.000000 0.000000 -7.125000 0.000000 0.000000 -5.055272 19.622362 -3.076022 0.000000 0.000000 0.000000 -6.251494 30.542018 27.123373 -63.392097 -57.146871 -37.177797 -27.966569 -15.072249 -5.284425 0.000000 0.000000 0.000000 7.125000 0.000000 0.000000 -0.951070 24.001484 -0.482042
6.707376 15.298022 -0.352011 10.136291 16.737180 8.205524 0.000000 0.000000 0.000000 -5.071615 -15.050255 -29.061651 8.664978 16.586985 54.923769 2.117405 -19.234565 -27.580604 2.432056 -9.713342 -28.053320 0.000000 0.000000 0.000000 15.088256 -8.981366 -28.939671 -24.376864 -19.532399 102.894479 -0.389850 -1.355577 -12.344562 -4.205781 12.429278 -37.268085 -12.076712 -0.101907 18.302406 -4.924276 -2.773967 3.092207 2.130201 -1.095442 -6.574608 -7.526955 -5.554651 -16.909375 9.017782 -6.947994 8.653769 3.380214 -2.963917 5.960279 0.000000 0.000000 0.000000 16.752114 -4.247453 -29.813801 128.755798 -53.484984 92.828993 19.940192 -12.121025 9.751006 0.000000 0.000000 0.000000 -7.125000 0.000000 0.000000 -5.015615 19.640485 -3.049666 0.000000 0.000000 0.000000 -6.047281 30.566654 26.843318 -62.990492 -57.053212 -36.840791 -28.151306 -15.372547 -5.282674 0.000000 0.000000 0.000000 7.125000 0.000000 0.000000 -1.088409 23.993251 -0.551925
6.750627 15.277103 -0.243484 10.296086 16.619500 8.376807 0.000000 0.000000 0.000000 -5.347891 -14.945691 -28.762152 8.710563 16.617641 55.083348 2.241075 -19.239142 -28.253541 2.431227 -9.711837 -28.048466 0.000000 0.000000 0.000000 15.170027 -8.881410 -30.159385 -24.544706 -19.495998 103.396532 -0.421950 -1.217562 -12.758270 -4.219634 12.447064 -37.332408 -12.139254 -0.132779 18.388877 -4.952260 -2.842345 3.092545 2.151335 -1.124869 -6.611346 -7.480326 -5.525284 -17.038759 8.963504 -6.895190 8.543614 3.359356 -2.938728 5.938131 0.000000 0.000000 0.000000 16.516723 -4.962288 -29.703002 128.667730 -53.518774 92.758188 19.995454 -12.040575 9.730210 0.000000 0.000000 0.000000 -7.125000 0.000000 0.000000 -4.975958 19.658609 -3.023310 0.000000 0.000000 0.000000 -5.843069 30.591289 26.563263 -62.588887 -56.959553 -36.503786 -28.336043 -15.672845 -5.280923 0.000000 0.000000 0.000000 7.125000 0.000000 0.000000 -1.225749 23.985019 -0.621808
6.793705 15.256740 -0.134943 10.452710 16.496080 8.550126 0.000000 0.000000 0.000000 -5.623379 -14.843561 -28.459212 8.753414 16.646359 55.233229 2.363987 -19.228769 -28.911249 2.430976 -9.711384 -28.047009 0.000000 0.000000 0.000000 15.251776 -8.755536 -31.383577 -24.701745 -19.461190 103.866762 -0.454314 -1.086691 -13.167486 -4.235517 12.467374 -37.406002 -12.201277 -0.162711 18.473259 -4.975053 -2.908980 3.091538 2.177457 -1.153380 -6.648295 -7.433636 -5.494558 -17.169510 8.905109 -6.840057 8.433370 3.337447 -2.912698 5.915818 0.000000 0.000000 0.000000 16.265465 -5.664653 -29.605530 128.620410 -53.536930 92.720146 20.047470 -11.977283 9.712735 0.000000 0.000000 0.000000 -7.125000 0.000000 0.000000 -4.938653 19.673449 -2.998787 0.000000 0.000000 0.000000 -5.649938 30.618254 26.291277 -62.225227 -56.874045 -36.198776 -28.516416 -15.974442 -5.284558 0.000000 0.000000 0.000000 7.125000 0.000000 0.000000 -1.359535 23.970822 -0.690173
6.836249 15.238094 -0.026356 10.599541 16.354931 8.729733 0.000000 0.000000 0.000000 -5.896430 -14.748950 -28.145644 8.787818 16.669090 55.353151 2.484554 -19.172218 -29.521920 2.432512 -9.714179 -28.056040 0.000000 0.000000 0.000000 15.333455 -8.549604 -32.621599 -24.825416 -19.431302 104.238693 -0.487489 -0.977888 -13.562825 -4.257664 12.495481 -37.508231 -12.261699 -0.189743 18.551190 -4.981811 -2.970231 3.086377 2.218987 -1.179061 -6.685894 -7.386760 -5.459632 -17.304484 8.833997 -6.777731 8.322847 3.312289 -2.884069 5.892995 0.000000 0.000000 0.000000 15.965198 -6.328497 -29.549224 128.698955 -53.506796 92.783302 20.089461 -11.966993 9.705516 0.000000 0.000000 0.000000 -7.125000 0.000000 0.000000 -4.908611 19.678149 -2.979927 0.000000 0.000000 0.000000 -5.491034 30.652412 26.044213 -61.978778 -56.813716 -35.992598 -28.683306 -16.280054 -5.304832 0.000000 0.000000 0.000000 7.125000 0.000000 0.000000 -1.482345 23.938199 -0.753852
6.878793 15.219448 0.082232 10.746373 16.213783 8.909340 0.000000 0.000000 0.000000 -6.169481 -14.654339 -27.832076 8.822222 16.691822 55.473074 2.605122 -19.115666 -30.132591 2.434047 -9.716974 -28.065071 0.000000 0.000000 0.000000 15.415133 -8.343671 -33.859621 -24.949086 -19.401413 104.610625 -0.520664 -0.869085 -13.958164 -4.279812 12.523588 -37.610460 -12.322121 -0.216774 18.629122 -4.988569 -3.031483 3.081217 2.260518 -1.204741 -6.723493 -7.339885 -5.424706 -17.439459 8.762885 -6.715404 8.212324 3.287131 -2.855440 5.870171 0.000000 0.000000 0.000000 15.664931 -6.992341 -29.492918 128.777501 -53.476662 92.846458 20.131452 -11.956702 9.698297 0.000000 0.000000 0.000000 -7.125000 0.000000 0.000000 -4.878569 19.682849 -2.961066 0.000000 0.000000 0.000000 -5.332131 30.686570 25.797149 -61.732328 -56.753386 -35.786419 -28.850196 -16.585666 -5.325106 0.000000 0.000000 0.000000 7.125000 0.000000 0.000000 -1.605155 23.905577 -0.817530
6.921338 15.200803 0.190820 10.893204 16.072634 9.088948 0.000000 0.000000 0.000000 -6.442532 -14.559728 -27.518508 8.856626 16.714553 55.592996 2.725689 -19.059115 -30.743262 2.435583 -9.719770 -28.074102 0.000000 0.000000 0.000000 15.496812 -8.137738 -35.097643 -25.072756 -19.371525 104.982557 -0.553839 -0.760283 -14.353503 -4.301959 12.551694 -37.712689 -12.382543 -0.243806 18.707053 -4.995327 -3.092734 3.076056 2.302049 -1.230421 -6.761091 -7.293010 -5.389780 -17.574433 8.691773 -6.653077 8.101801 3.261973 -2.826811 5.847348 0.000000 0.000000 0.000000 15.364664 -7.656184 -29.436612 128.856046 -53.446528 92.909614 20.173444 -11.946412 9.691078 0.000000 0.000000 0.000000 -7.125000 0.000000 0.000000 -4.848527 19.687549 -2.942205 0.000000 0.000000 0.000000 -5.173227 30.720729 25.550085 -61.485879 -56.693056 -35.580241 -29.017086 -16.891278 -5.345380 0.000000 0.000000 0.000000 7.125000 0.000000 0.000000 -1.727965 23.872955 -0.881208
6.962788 15.184922 0.300501 11.042345 15.909184 9.274723 0.000000 0.000000 0.000000 -6.735211 -14.461350 -27.175924 8.874805 16.726437 55.656131 2.839512 -18.951974 -31.288456 2.436117 -9.720772 -28.077238 0.000000 0.000000 0.000000 15.542334 -7.835732 -36.328495 -25.150455 -19.351390 105.217154 -0.587653 -0.676942 -14.730338 -4.333647 12.591347 -37.857820 -12.457124 -0.265976 18.781004 -4.986558 -3.149945 3.064150 2.367582 -1.253215 -6.802275 -7.243399 -5.346771 -17.710623 8.603403 -6.578840 7.990883 3.232288 -2.793655 5.822945 0.000000 0.000000 0.000000 15.010951 -8.254824 -29.439646 129.100519 -53.350794 93.105608 20.196323 -12.019829 9.689055 0.000000 0.000000 0.000000 -7.125000 0.000000 0.000000 -4.832188 19.688056 -2.932156 0.000000 0.000000 0.000000 -5.055464 30.778283 25.342217 -61.417935 -56.676053 -35.523461 -29.144295 -17.161037 -5.398620 0.000000 0.000000 0.000000 7.125000 0.000000 0.000000 -1.819206 23.804540 -0.930970
